<svg id="Layer_1" data-name="Layer 1" xmlns="http://www.w3.org/2000/svg" viewBox="0 0 116.53 130.16"><path d="M15.5,44.21,9.8,22.84c6.45,27.2,65.44-3.17,88.32,1Z" transform="translate(-9.8 -5.69)"/><path d="M120.65,114.48l5.68,21.37C119.89,108.64,60.88,139,38,134.79Z" transform="translate(-9.8 -5.69)"/><path d="M28.69,129.07c-.06-2.83,68.69-108,70.15-105.24,1,1.85-59.92,110.58-61.31,110.93C31.56,136.24,28.75,132.49,28.69,129.07Z" transform="translate(-9.8 -5.69)"/><circle cx="46.37" cy="87.35" r="8.78"/><circle cx="59.71" cy="65.47" r="7.73"/><circle cx="71.51" cy="45.47" r="6.19"/><path d="M110.74,17.31l.29,4.05,3.82.05.06.17-1.29.84c-.53.33-1.06.64-1.59.95-.34.19-.4.41-.2.77.4.75.76,1.51,1.12,2.28a2.36,2.36,0,0,1,.12.61,2.15,2.15,0,0,1-.64-.1c-.79-.41-1.58-.83-2.33-1.29a.47.47,0,0,0-.7.07l-1.64,1.77-.51.48c0-.33,0-.55,0-.77,0-.77.11-1.55.13-2.32s0-.68-.66-.66c-.88,0-1.75.09-2.63.09a3.3,3.3,0,0,1-.83-.22,2.82,2.82,0,0,1,.55-.67c.76-.5,1.54-.95,2.31-1.42l.35-.22a15.19,15.19,0,0,1-1.31-3.15,18.71,18.71,0,0,1,3.13,1.31,18.16,18.16,0,0,1,2.25-2.67Z" transform="translate(-9.8 -5.69)"/><path d="M100.89,12.17c-.26.31-.53.62-.8.92-.51.56-1,1.12-1.55,1.67a.49.49,0,0,0,0,.69c.44.69.87,1.39,1.28,2.1a7.84,7.84,0,0,1,.32.72l-.1.11a5,5,0,0,1-.66-.19c-.76-.3-1.52-.6-2.27-.93a.42.42,0,0,0-.62.22c-.36.65-.75,1.29-1.13,1.93a1,1,0,0,1-.24.35.85.85,0,0,1-.5.18c-.07,0-.16-.27-.18-.42-.08-.88-.15-1.77-.24-2.72l-3.77,1-.07-.13a4.25,4.25,0,0,1,.31-.43c.69-.76,1.38-1.53,2.08-2.28a.63.63,0,0,0,.08-1c-.49-.71-.9-1.49-1.34-2.25a1.7,1.7,0,0,1-.13-.4l.08-.13,3.32,1.31a18.93,18.93,0,0,1,1.35-3.26c.17.4.29.67.39,1,.26.72.49,1.44.74,2.16a.5.5,0,0,0,.73.34c.8-.23,1.61-.41,2.42-.61.16,0,.32,0,.49,0Z" transform="translate(-9.8 -5.69)"/><path d="M112.93,11.38l-1.15,0h-.6c-1.23,0-1.12-.11-.87,1.13.1.43.21.86.29,1.3a3.8,3.8,0,0,1,0,.61,10.77,10.77,0,0,1-2.12-2.15,12.38,12.38,0,0,1-2.74,1.75,10.69,10.69,0,0,1,1-3,11.86,11.86,0,0,1-2.86-1.34l0-.16a4.5,4.5,0,0,1,.7-.25c.63-.11,1.27-.21,1.91-.3.29,0,.4-.15.37-.48-.07-.74-.08-1.49-.1-2.23a2.8,2.8,0,0,1,.08-.57l.16-.06L108.76,8l1.86-1.45a3.23,3.23,0,0,1,.43-.29,2.71,2.71,0,0,1,.43-.1c0,.15.09.33,0,.45-.3.81-.6,1.61-.94,2.41-.12.28-.11.44.18.61.59.36,1.15.76,1.72,1.15a5.23,5.23,0,0,1,.49.45Z" transform="translate(-9.8 -5.69)"/></svg>