<?xml version="1.0" encoding="utf-8"?>
<!-- Generator: Adobe Illustrator 26.0.1, SVG Export Plug-In . SVG Version: 6.00 Build 0)  -->
<svg version="1.1" id="Layer_1" xmlns="http://www.w3.org/2000/svg" xmlns:xlink="http://www.w3.org/1999/xlink" x="0px" y="0px"
	 viewBox="0 0 100 100" style="enable-background:new 0 0 100 100;" xml:space="preserve">
<style type="text/css">
	.st0{stroke:#000000;stroke-miterlimit:10;}
	.st1{fill:none;stroke:#000000;stroke-miterlimit:10;}
</style>
<circle class="st0" cx="62.8" cy="9" r="2"/>
<path class="st0" d="M50.3,95.9c0.5-2.3,0.9-4.6,2.4-7.7c0-0.1,0-0.2-0.1-0.2c0,0-3.6,0-4.8,0c-0.1,0-0.1,0.1-0.1,0.1
	c1.4,2.6,2.4,7.8,2.4,7.8C50.3,95.9,50.3,95.9,50.3,95.9z"/>
<path class="st0" d="M22.9,30.3c-0.5,2.4-0.9,4.6-2.4,7.7c0,0.1,0,0.2,0.1,0.2c0,0,3.6,0,4.8,0c0.1,0,0.1-0.1,0.1-0.1
	C24,35.6,23,30.3,23,30.3C23,30.3,22.9,30.3,22.9,30.3z"/>
<path class="st1" d="M61.2,8.4c7.6,2.1,15.6,14.3,16.3,22.2c0.6,6.9-2.6,14.9-7.6,19.7s-12.7,8.8-18.3,8.6
	c-5.3-0.2-9.7-0.1-14.7-2.1c-5.2-2.1-10-4.8-12.1-10c-3.5-8.9-2.1-19.7,3.7-27.3S44.2,7.3,53.7,8.2C51.3,36,50.2,64,50.6,91.9"/>
</svg>
