<?xml version="1.0" encoding="utf-8"?>
<!-- Generator: Adobe Illustrator 26.0.1, SVG Export Plug-In . SVG Version: 6.00 Build 0)  -->
<svg version="1.1" id="Layer_1" xmlns="http://www.w3.org/2000/svg" xmlns:xlink="http://www.w3.org/1999/xlink" x="0px" y="0px"
	 viewBox="0 0 116.5 130.2" style="enable-background:new 0 0 116.5 130.2;" xml:space="preserve">
<style type="text/css">
	.st0{fill:#B1301F;}
</style>
<path class="st0" d="M5.7,38.5L0,17.1c6.4,27.2,65.4-3.2,88.3,1L5.7,38.5z"/>
<path class="st0" d="M110.8,108.8l5.7,21.4c-6.4-27.2-65.4,3.1-88.3-1.1L110.8,108.8z"/>
<path class="st0" d="M18.9,123.4c-0.1-2.8,68.7-108,70.2-105.2c1,1.9-59.9,110.6-61.3,110.9C21.8,130.6,19,126.8,18.9,123.4z"/>
<circle class="st0" cx="46.4" cy="87.3" r="8.8"/>
<circle class="st0" cx="59.7" cy="65.5" r="7.7"/>
<circle class="st0" cx="71.5" cy="45.5" r="6.2"/>
<path class="st0" d="M100.9,11.6l0.3,4.1l3.8,0l0.1,0.2l-1.3,0.8c-0.5,0.3-1.1,0.6-1.6,1c-0.3,0.2-0.4,0.4-0.2,0.8
	c0.4,0.8,0.8,1.5,1.1,2.3c0.1,0.2,0.1,0.4,0.1,0.6c-0.2,0-0.4,0-0.6-0.1c-0.8-0.4-1.6-0.8-2.3-1.3c-0.2-0.2-0.5-0.2-0.7,0
	c0,0,0,0,0,0L98,21.8l-0.5,0.5c0-0.3,0-0.5,0-0.8c0-0.8,0.1-1.5,0.1-2.3s0-0.7-0.7-0.7c-0.9,0-1.8,0.1-2.6,0.1
	c-0.3,0-0.6-0.1-0.8-0.2c0.1-0.3,0.3-0.5,0.6-0.7c0.8-0.5,1.5-1,2.3-1.4l0.3-0.2c-0.6-1-1-2.1-1.3-3.1c1.1,0.3,2.1,0.8,3.1,1.3
	c0.7-1,1.4-1.9,2.2-2.7L100.9,11.6z"/>
<path class="st0" d="M91.1,6.5c-0.3,0.3-0.5,0.6-0.8,0.9c-0.5,0.6-1,1.1-1.6,1.7c-0.2,0.2-0.2,0.5,0,0.7c0.4,0.7,0.9,1.4,1.3,2.1
	c0.1,0.2,0.2,0.5,0.3,0.7l-0.1,0.1c-0.2,0-0.4-0.1-0.7-0.2c-0.8-0.3-1.5-0.6-2.3-0.9c-0.2-0.1-0.5-0.1-0.6,0.1c0,0,0,0.1,0,0.1
	c-0.4,0.6-0.8,1.3-1.1,1.9c-0.1,0.1-0.1,0.3-0.2,0.4c-0.1,0.1-0.3,0.2-0.5,0.2c-0.1,0-0.2-0.3-0.2-0.4c-0.1-0.9-0.2-1.8-0.2-2.7
	l-3.8,1L80.6,12c0.1-0.1,0.2-0.3,0.3-0.4c0.7-0.8,1.4-1.5,2.1-2.3c0.3-0.2,0.4-0.6,0.2-0.9c0,0-0.1-0.1-0.1-0.1
	c-0.5-0.7-0.9-1.5-1.3-2.3c-0.1-0.1-0.1-0.3-0.1-0.4l0.1-0.1L85,6.8c0.3-1.1,0.8-2.2,1.3-3.3c0.2,0.4,0.3,0.7,0.4,1
	C87,5.3,87.2,6,87.4,6.7C87.5,7,87.8,7.1,88,7.1c0,0,0.1,0,0.1-0.1c0.8-0.2,1.6-0.4,2.4-0.6C90.8,6.4,90.9,6.4,91.1,6.5L91.1,6.5z"
	/>
<path class="st0" d="M103.1,5.7H102h-0.6c-1.2,0-1.1-0.1-0.9,1.1c0.1,0.4,0.2,0.9,0.3,1.3c0,0.2,0,0.4,0,0.6
	c-0.8-0.6-1.5-1.3-2.1-2.1c-0.8,0.7-1.8,1.3-2.7,1.7c0.2-1,0.5-2.1,1-3c-1-0.3-2-0.8-2.9-1.3V3.8c0.2-0.1,0.5-0.2,0.7-0.2
	c0.6-0.1,1.3-0.2,1.9-0.3c0.3,0,0.4-0.1,0.4-0.5C97,2.1,97,1.3,97,0.6C97,0.4,97,0.2,97,0l0.2-0.1L99,2.3l1.9-1.4
	c0.1-0.1,0.3-0.2,0.4-0.3c0.1,0,0.3-0.1,0.4-0.1c0,0.2,0.1,0.3,0,0.4c-0.3,0.8-0.6,1.6-0.9,2.4c-0.1,0.3-0.1,0.4,0.2,0.6
	c0.6,0.4,1.2,0.8,1.7,1.1c0.2,0.1,0.3,0.3,0.5,0.4V5.7z"/>
</svg>
