<?xml version="1.0" encoding="utf-8"?>
<!-- Generator: Adobe Illustrator 26.0.1, SVG Export Plug-In . SVG Version: 6.00 Build 0)  -->
<svg version="1.1" id="Layer_1" xmlns="http://www.w3.org/2000/svg" xmlns:xlink="http://www.w3.org/1999/xlink" x="0px" y="0px"
	 viewBox="0 0 64 64" style="enable-background:new 0 0 64 64;" xml:space="preserve">
<path d="M59.8,28.5c-0.2,0.8-0.5,1.6-1,2.3c-1,1.4-2.5,2-4.2,2c-2.6,0-5.1,0-7.7,0c-0.2,0-0.4,0-0.6,0c0.7,3.1-0.4,5.2-3.4,6.4
	c0.5,1.3,0.4,2.6-0.2,3.9c-0.6,1.3-1.7,2.1-3,2.5c0.1,0.7,0.3,1.5,0.2,2.2c-0.2,2.7-2.2,4.5-4.9,4.6c-3.6,0-7.1,0-10.7-0.2
	c-3.6-0.2-7-1.1-10.4-2.3c-0.2-0.1-0.3-0.1-0.5-0.2c-0.3,0.4-0.5,0.8-0.9,1.1c-1,1-2.2,1.5-3.6,1.6c-1,0-2,0-3,0
	c-1.1,0-1.8-0.7-1.8-1.8c0-8.6,0-17.2,0-25.8c0-1.1,0.7-1.8,1.8-1.8c0.8,0,1.5,0,2.3,0c2-0.1,3.4,0.2,4.9,2.1c1.3-1,2.6-2.1,3.9-3.1
	c2-1.6,3.9-3.2,5.9-4.8c2.9-2.3,6.6-2.5,9.6-0.5c0.6,0.4,1.1,0.8,1.5,1.3c1.6,1.5,3.1,3.1,4.7,4.6c0.2,0.2,0.5,0.3,0.8,0.3
	c5,0,10,0,15.1,0c1.7,0,3.2,0.6,4.2,2c0.5,0.7,0.8,1.5,1,2.3C59.9,27.8,59.9,28.1,59.8,28.5z M34.5,23.1c-1.1-1.1-2-2.1-3-3
	c-2-1.7-4.4-1.8-6.5-0.2c-3.6,2.9-7.2,5.7-10.8,8.6c-0.2,0.1-0.3,0.4-0.3,0.6c0,5.7,0,11.3,0,17c0,0.3,0.1,0.4,0.4,0.5
	c3.4,1.3,6.9,2.2,10.6,2.4c3.4,0.2,6.8,0.2,10.3,0.2c0.9,0,1.6-0.7,1.7-1.6c0-0.9-0.6-1.6-1.6-1.7c-1-0.1-1.7-0.8-1.7-1.7
	c0-0.9,0.8-1.5,1.8-1.5c1,0,1.9,0,2.9,0c1.1,0,1.8-0.7,1.8-1.7c0-0.9-0.7-1.6-1.8-1.6c-1,0-2,0-3,0c-0.6,0-1.2-0.3-1.5-0.8
	c-0.6-1.1,0.1-2.4,1.4-2.4c2.1,0,4.2,0,6.3,0c0.6,0,1.2-0.2,1.5-0.7c0.3-0.5,0.4-1.1,0.1-1.6c-0.3-0.6-0.8-0.9-1.5-0.9
	c-2.1,0-4.1,0-6.2,0c-1.1,0-1.9-0.7-1.9-1.6c0-1,0.7-1.6,1.9-1.6c0.1,0,0.3,0,0.4,0c6.2,0,12.4,0,18.6,0c0.2,0,0.4,0,0.7,0
	c0.8-0.1,1.4-0.8,1.5-1.6c0-0.8-0.5-1.5-1.3-1.6c-0.3,0-0.5,0-0.8,0c-8.4,0-16.9,0-25.3,0c-0.3,0-0.6,0-0.9-0.1
	c-0.6-0.1-0.9-0.4-1.2-1c-0.4-1.1,0.4-2.2,1.6-2.2C30.5,23.1,32.4,23.1,34.5,23.1z M7.4,26.4c0,7.6,0,15.2,0,22.8c0.4,0,0.8,0,1.2,0
	c1.5,0,2.1-0.6,2.1-2c0-6.3,0-12.5,0-18.8c0-0.2,0-0.4,0-0.5c-0.1-0.8-0.7-1.4-1.5-1.5C8.6,26.3,8,26.4,7.4,26.4z"/>
</svg>
