<?xml version="1.0" encoding="utf-8"?>
<!-- Generator: Adobe Illustrator 26.0.1, SVG Export Plug-In . SVG Version: 6.00 Build 0)  -->
<svg version="1.1" id="Layer_1" xmlns="http://www.w3.org/2000/svg" xmlns:xlink="http://www.w3.org/1999/xlink" x="0px" y="0px"
	 viewBox="0 0 100 100" style="enable-background:new 0 0 100 100;" xml:space="preserve">
<style type="text/css">
	.st0{fill:none;stroke:#3A96CF;stroke-width:2;stroke-miterlimit:10;}
	.st1{fill:#3A96CF;stroke:#3A96CF;stroke-miterlimit:10;}
</style>
<path class="st0" d="M19.5,78.5c-1.6-13.6-3-28.4,4-40.1c2.5-4.1,5.8-7.6,9.6-10.5c3.9-3,8.3-5.4,13.1-6.4
	c12.4-2.4,25.4,7,28.7,19.2s-2.6,25.9-12.7,33.5c-3.2,2.4-6.8,4.3-10.7,4.9c-8.5,1.4-17.4-3.8-20.9-11.6S29.1,49.8,35,43.6
	s15.3-8.7,23.7-6.8"/>
<circle class="st1" cx="20.1" cy="78.3" r="2"/>
<path class="st1" d="M64.6,38.4c-2.1-1.1-4.3-2.1-6.8-4.4c-0.1-0.1-0.2,0-0.2,0.1c0,0-0.9,3.5-1.3,4.6c0,0,0,0.1,0.1,0.1
	c2.9-0.7,8.2-0.3,8.2-0.3C64.7,38.5,64.7,38.4,64.6,38.4z"/>
</svg>
